<svg width="9" height="5" viewBox="0 0 9 5" fill="none" xmlns="http://www.w3.org/2000/svg">
<g id="fi-rr-angle-small-down">
<path id="Vector" d="M8.57505 0.664947C8.52321 0.612681 8.46154 0.571196 8.39358 0.542886C8.32563 0.514575 8.25275 0.5 8.17913 0.5C8.10552 0.5 8.03263 0.514575 7.96468 0.542886C7.89673 0.571196 7.83505 0.612681 7.78321 0.664947L5.22925 3.21891C5.17741 3.27118 5.11573 3.31266 5.04778 3.34097C4.97983 3.36928 4.90694 3.38386 4.83333 3.38386C4.75971 3.38386 4.68683 3.36928 4.61887 3.34097C4.55092 3.31266 4.48924 3.27118 4.43741 3.21891L1.88344 0.664947C1.8316 0.612681 1.76993 0.571196 1.70197 0.542886C1.63402 0.514575 1.56113 0.5 1.48752 0.5C1.41391 0.5 1.34102 0.514575 1.27307 0.542886C1.20511 0.571196 1.14344 0.612681 1.0916 0.664947C0.987739 0.769427 0.929443 0.91076 0.929443 1.05808C0.929443 1.2054 0.987739 1.34673 1.0916 1.45121L3.65114 4.01075C3.96481 4.32403 4.39 4.5 4.83333 4.5C5.27665 4.5 5.70184 4.32403 6.01551 4.01075L8.57505 1.45121C8.67891 1.34673 8.73721 1.2054 8.73721 1.05808C8.73721 0.91076 8.67891 0.769427 8.57505 0.664947Z" fill="#121212"/>
</g>
</svg>
