<svg width="105" height="40" viewBox="0 0 105 40" fill="none" xmlns="http://www.w3.org/2000/svg">
<g clip-path="url(#clip0_0_1973)">
<path opacity="0.4" d="M22.737 20.1912L14.326 0C14.326 0 5.69009 18.3229 17.3699 30.4403C23.4191 25.2428 22.737 20.1912 22.737 20.1912Z" fill="url(#paint0_linear_0_1973)"/>
<path opacity="0.4" d="M22.6826 20.2843L28.2535 0C28.2535 0 5.17339 6.76143 17.3104 30.4268C24.4738 27.444 22.6826 20.2843 22.6826 20.2843Z" fill="url(#paint1_linear_0_1973)"/>
<path opacity="0.4" d="M22.6825 20.2844L6.76494 4.375C6.76494 4.375 5.37219 19.2899 17.3104 30.427C23.4787 26.6484 22.6825 20.2844 22.6825 20.2844Z" fill="url(#paint2_linear_0_1973)"/>
<path opacity="0.4" d="M22.6824 20.2843L1.59155 11.7334C1.59155 11.7334 4.1782 22.4722 17.3103 30.4269C21.8871 25.455 22.6824 20.2843 22.6824 20.2843Z" fill="url(#paint3_linear_0_1973)"/>
<path opacity="0.4" d="M22.6825 20.2842L0 20.6825C0 20.6825 3.78055 26.4494 17.3103 30.4267C22.6825 24.8586 22.6825 20.2842 22.6825 20.2842Z" fill="url(#paint4_linear_0_1973)"/>
<path opacity="0.4" d="M22.6825 20.2842L2.98438 30.0293C2.98438 30.0293 8.75419 34.2054 17.3104 30.4267C21.6874 26.6481 22.6825 20.2842 22.6825 20.2842Z" fill="url(#paint5_linear_0_1973)"/>
<path d="M35.6157 17.4999C35.6157 17.4999 32.6313 15.1133 29.0496 15.1133C21.6874 15.1133 22.6824 26.6479 10.1477 39.972C13.7294 39.1762 30.2435 37.9829 30.2435 24.6588C30.2435 21.0797 30.6412 18.2957 35.6157 17.4999Z" fill="url(#paint6_linear_0_1973)"/>
<path d="M46.1782 8.755H41.1839V11.919H43.7593C44.8408 11.9335 45.685 12.2165 46.2921 12.7681C46.8992 13.3196 47.2028 14.0695 47.2028 15.0177C47.2028 15.9708 46.8968 16.7303 46.285 17.2964C45.6732 17.8624 44.8384 18.1551 43.7807 18.1745H39.8108V7.6084H46.1782V8.755ZM41.1839 13.0656V17.0351H43.6811C44.3594 17.0351 44.8858 16.8513 45.2605 16.4836C45.6399 16.1159 45.8296 15.6224 45.8296 15.0032C45.8296 14.4081 45.6471 13.9388 45.2819 13.5953C44.9214 13.2519 44.4068 13.0753 43.738 13.0656H41.1839Z" fill="white"/>
<path d="M54.7725 15.4168H50.4327L49.458 18.1745H48.0493L52.005 7.6084H53.2002L57.163 18.1745H55.7614L54.7725 15.4168ZM50.8453 14.2702H54.367L52.6026 9.32825L50.8453 14.2702Z" fill="white"/>
<path d="M66.5186 18.1745H65.1456V13.2906H59.9235V18.1745H58.5575V7.6084H59.9235V12.1512H65.1456V7.6084H66.5186V18.1745Z" fill="white"/>
<path d="M71.6341 13.4285H70.3748V18.1745H69.0088V7.6084H70.3748V12.2674H71.442L75.0633 7.6084H76.7636L72.808 12.7318L77.0553 18.1745H75.3835L71.6341 13.4285Z" fill="white"/>
<path d="M79.6734 14.038V18.1745H78.3074V7.6084H82.1279C83.2614 7.6084 84.1488 7.90351 84.7889 8.4937C85.4341 9.08397 85.7563 9.86527 85.7563 10.8377C85.7563 11.8633 85.4408 12.6544 84.8099 13.2108C84.184 13.7623 83.2852 14.038 82.1137 14.038H79.6734ZM79.6734 12.8986H82.1279C82.8583 12.8986 83.418 12.7245 83.8069 12.3762C84.1958 12.023 84.3904 11.515 84.3904 10.8523C84.3904 10.2233 84.1958 9.7202 83.8069 9.34284C83.418 8.9654 82.8844 8.76951 82.2061 8.755H79.6734V12.8986Z" fill="white"/>
<path d="M95.4678 13.2326C95.4678 14.2679 95.2966 15.1726 94.9552 15.9467C94.6137 16.716 94.1304 17.3037 93.5037 17.7102C92.8778 18.1165 92.1478 18.3197 91.313 18.3197C90.4967 18.3197 89.7735 18.1165 89.1425 17.7102C88.5116 17.2989 88.0208 16.716 87.6701 15.9612C87.3236 15.2017 87.1457 14.3236 87.1365 13.3269V12.565C87.1365 11.549 87.3093 10.6516 87.6558 9.87269C88.0023 9.09374 88.4906 8.49868 89.1216 8.08747C89.7567 7.67141 90.4824 7.46338 91.2988 7.46338C92.1286 7.46338 92.8593 7.66899 93.4894 8.08022C94.1254 8.48661 94.6137 9.07923 94.9552 9.85818C95.2966 10.6323 95.4678 11.5345 95.4678 12.565V13.2326ZM94.1086 12.5505C94.1086 11.2974 93.8619 10.3371 93.3686 9.6695C92.8753 8.99696 92.1856 8.66078 91.2988 8.66078C90.4354 8.66078 89.755 8.99696 89.2566 9.6695C88.7633 10.3371 88.5099 11.266 88.4957 12.4562V13.2326C88.4957 14.4469 88.744 15.4024 89.2424 16.0991C89.7449 16.7909 90.4354 17.1368 91.313 17.1368C92.1948 17.1368 92.8778 16.8103 93.3619 16.1571C93.8452 15.4992 94.0943 14.5582 94.1086 13.3342V12.5505Z" fill="white"/>
<path d="M104.474 8.755H101.145V18.1745H99.7861V8.755H96.4636V7.6084H104.474V8.755Z" fill="white"/>
<path d="M49.6821 33.8767H47.1726V23.5932H42.3119V33.8767H39.8108V21.5332H49.6821V33.8767Z" fill="white"/>
<path d="M54.3842 29.5277V33.8767H51.8831V21.5332H56.6186C57.5301 21.5332 58.3306 21.7028 59.0198 22.0418C59.7146 22.3809 60.2481 22.8642 60.6205 23.4915C60.9929 24.1132 61.1791 24.8225 61.1791 25.6194C61.1791 26.8289 60.7706 27.7841 59.9535 28.4849C59.142 29.1801 58.0165 29.5277 56.577 29.5277H54.3842ZM54.3842 27.4675H56.6186C57.28 27.4675 57.7831 27.3093 58.1277 26.9928C58.4779 26.6763 58.6529 26.2242 58.6529 25.6363C58.6529 25.0317 58.4779 24.5428 58.1277 24.1698C57.7775 23.7967 57.294 23.6046 56.677 23.5932H54.3842V27.4675Z" fill="white"/>
<path d="M72.8763 27.9843C72.8763 29.1995 72.6651 30.2648 72.2427 31.1805C71.8202 32.096 71.2144 32.8025 70.4251 33.2999C69.6414 33.7972 68.741 34.0459 67.7239 34.0459C66.7178 34.0459 65.8202 33.8 65.0309 33.3084C64.2417 32.8166 63.6303 32.1158 63.1968 31.2059C62.7632 30.2902 62.5436 29.239 62.5381 28.0522V27.4418C62.5381 26.2266 62.7521 25.1584 63.1801 24.2372C63.6136 23.3103 64.2222 22.601 65.0059 22.1093C65.7952 21.6119 66.6956 21.3633 67.7072 21.3633C68.7188 21.3633 69.6164 21.6119 70.4001 22.1093C71.1894 22.601 71.798 23.3103 72.226 24.2372C72.6596 25.1584 72.8763 26.2238 72.8763 27.4333V27.9843ZM70.3417 27.4248C70.3417 26.1306 70.1139 25.1472 69.6581 24.4746C69.2024 23.802 68.5521 23.4658 67.7072 23.4658C66.8679 23.4658 66.2204 23.7992 65.7646 24.4661C65.3088 25.1274 65.0782 26.0995 65.0726 27.3824V27.9843C65.0726 29.2447 65.3005 30.2225 65.7563 30.9177C66.2121 31.6128 66.8679 31.9603 67.7239 31.9603C68.5631 31.9603 69.2079 31.6269 69.6581 30.96C70.1083 30.2875 70.3362 29.3097 70.3417 28.0268V27.4248Z" fill="white"/>
<path d="M81.9973 28.5272H77.195V31.8336H82.831V33.8767H74.6938V21.5332H82.8143V23.5932H77.195V26.535H81.9973V28.5272Z" fill="white"/>
<path d="M88.2583 28.8325H86.816V33.8767H84.3149V21.5332H86.816V26.4757H87.9587L90.9263 21.5332H93.9777L90.2349 27.3743L94.3696 33.8767H91.3852L88.2583 28.8325Z" fill="white"/>
<path d="M104.475 23.5932H100.756V33.8767H98.255V23.5932H94.5869V21.5332H104.475V23.5932Z" fill="white"/>
</g>
<defs>
<linearGradient id="paint0_linear_0_1973" x1="11.2525" y1="15.2203" x2="22.7601" y2="15.2203" gradientUnits="userSpaceOnUse">
<stop offset="0.1177" stop-color="#7ACA37"/>
<stop offset="0.2561" stop-color="#70C53A"/>
<stop offset="0.4886" stop-color="#56B641"/>
<stop offset="0.7848" stop-color="#2C9F4E"/>
<stop offset="1" stop-color="#098C58"/>
</linearGradient>
<linearGradient id="paint1_linear_0_1973" x1="13.7832" y1="15.2134" x2="28.2539" y2="15.2134" gradientUnits="userSpaceOnUse">
<stop offset="0.1177" stop-color="#7ACA37"/>
<stop offset="0.2561" stop-color="#70C53A"/>
<stop offset="0.4886" stop-color="#56B641"/>
<stop offset="0.7848" stop-color="#2C9F4E"/>
<stop offset="1" stop-color="#098C58"/>
</linearGradient>
<linearGradient id="paint2_linear_0_1973" x1="6.71519" y1="17.4012" x2="22.7162" y2="17.4012" gradientUnits="userSpaceOnUse">
<stop offset="0.1177" stop-color="#7ACA37"/>
<stop offset="0.2561" stop-color="#70C53A"/>
<stop offset="0.4886" stop-color="#56B641"/>
<stop offset="0.7848" stop-color="#2C9F4E"/>
<stop offset="1" stop-color="#098C58"/>
</linearGradient>
<linearGradient id="paint3_linear_0_1973" x1="1.59173" y1="21.0802" x2="22.6826" y2="21.0802" gradientUnits="userSpaceOnUse">
<stop offset="0.1177" stop-color="#7ACA37"/>
<stop offset="0.2561" stop-color="#70C53A"/>
<stop offset="0.4886" stop-color="#56B641"/>
<stop offset="0.7848" stop-color="#2C9F4E"/>
<stop offset="1" stop-color="#098C58"/>
</linearGradient>
<linearGradient id="paint4_linear_0_1973" x1="0" y1="25.3556" x2="22.6826" y2="25.3556" gradientUnits="userSpaceOnUse">
<stop offset="0.1177" stop-color="#7ACA37"/>
<stop offset="0.2561" stop-color="#70C53A"/>
<stop offset="0.4886" stop-color="#56B641"/>
<stop offset="0.7848" stop-color="#2C9F4E"/>
<stop offset="1" stop-color="#098C58"/>
</linearGradient>
<linearGradient id="paint5_linear_0_1973" x1="2.98459" y1="26.1467" x2="22.6827" y2="26.1467" gradientUnits="userSpaceOnUse">
<stop offset="0.1177" stop-color="#7ACA37"/>
<stop offset="0.2561" stop-color="#70C53A"/>
<stop offset="0.4886" stop-color="#56B641"/>
<stop offset="0.7848" stop-color="#2C9F4E"/>
<stop offset="1" stop-color="#098C58"/>
</linearGradient>
<linearGradient id="paint6_linear_0_1973" x1="26.4748" y1="19.6748" x2="20.1927" y2="35.5333" gradientUnits="userSpaceOnUse">
<stop offset="0.1177" stop-color="#7ACA37"/>
<stop offset="0.2561" stop-color="#70C53A"/>
<stop offset="0.4886" stop-color="#56B641"/>
<stop offset="0.7848" stop-color="#2C9F4E"/>
<stop offset="1" stop-color="#098C58"/>
</linearGradient>
<clipPath id="clip0_0_1973">
<rect width="104.54" height="40" fill="white"/>
</clipPath>
</defs>
</svg>
